PathFileType	4	(X/Y/Z)	19_coords_data.trc
DataRate	CameraRate	NumFrames	NumMarkers	Units	OrigDataRate	OrigDataStartFrame	OrigNumFrames
30.0	30.0	5	21	m	30.0	29	75
Frame#	Time	THUMB_TIP	THUMB_IP	THUMB_MCP	THUMB_CMC	INDEX_TIP	INDEX_DIP	INDEX_PIP	INDEX_MCP	MIDDLE_TIP	MIDDLE_DIP	MIDDLE_PIP	MIDDLE_MCP	RING_TIP	RING_DIP	RING_PIP	RING_MCP	PINKY_TIP	PINKY_DIP	PINKY_PIP	PINKY_MCP	WRIST
X1	Y1	Z1	X2	Y2	Z2	X3	Y3	Z3	X4	Y4	Z4	X5	Y5	Z5	X6	Y6	Z6	X7	Y7	Z7	X8	Y8	Z8	X9	Y9	Z9	X10	Y10	Z10	X11	Y11	Z11	X12	Y12	Z12	X13	Y13	Z13	X14	Y14	Z14	X15	Y15	Z15	X16	Y16	Z16	X17	Y17	Z17	X18	Y18	Z18	X19	Y19	Z19	X20	Y20	Z20	X21	Y21	Z21
27	0.9333333333333294	0.551063172618173	0.03555758202393022	-0.11299495411908936	0.5320998154175101	0.027091499739922198	-0.10316049762976182	0.5038479719179421	0.014791755491677216	-0.0987594034131282	0.4803233591399999	-0.008490662199343246	-0.06885268811189961	0.564550130005991	0.08588851538343234	-0.08795743027874378	0.5475441487703775	0.08798032470612727	-0.08209049445401811	0.5236702208469458	0.08372610094846988	-0.07546124270690704	0.4951683056972749	0.05223011014191237	-0.07241501718764601	0.5730404909700916	0.0502512591648564	-0.07777068782809624	0.5628414022306854	0.061462557473429213	-0.06785678954730329	0.5387535852362147	0.0702110327564276	-0.05397691913495212	0.4994812661668354	0.04948212302143318	-0.04906314491228711	0.5781373782099539	0.04926332707456693	-0.06121807063227526	0.5652981905413401	0.05440518377018877	-0.04965448253290905	0.5445943761686682	0.056832467892218186	-0.036029492947118685	0.5081542335745637	0.039670640030294635	-0.032521144880145375	0.572651052381326	0.05756733834161398	0.0032608687421603402	0.5580756397140595	0.04975443987555106	-0.0011568187906872696	0.5410387008819809	0.03989585926853367	-0.008461825474253934	0.5140008965012572	0.021444114126184854	-0.023606913340342164	0.4622830810018609	-0.023011742144276925	-0.051989820119430985
28	0.9666666666666625	0.5473823779090616	0.042451103365590326	-0.1124334757467848	0.5299199011991693	0.03204794756784035	-0.10171730774678547	0.5028457538014859	0.0173903796218573	-0.09713841654940994	0.4808667770092794	-0.0077729446596243035	-0.06758132450244686	0.5612609571351597	0.09653620386833217	-0.07734127764178872	0.5436711793713963	0.09524209217522805	-0.07322727798850867	0.5202101697346694	0.08718947372259234	-0.0691350663759846	0.49406301494170124	0.05357574681656141	-0.06885265936591811	0.5761147015848731	0.07139099923900549	-0.0622617605891313	0.5606156350175526	0.07616796644654245	-0.054202013704775315	0.5329926003722933	0.07668285670895636	-0.04492233725543292	0.49673484085784725	0.05057926550934333	-0.04527634640232586	0.5770040428918233	0.0650731587759995	-0.045089943404203	0.5614140345086234	0.0658454470254144	-0.03607023113209727	0.5385268149574511	0.06275106620982185	-0.026754654521681007	0.5046141700871278	0.040814681483314796	-0.02861163514355189	0.5645194718554992	0.06109816947294211	0.012982632386235676	0.5507469976433094	0.05267730778256774	0.0072898261831269295	0.5348414650214894	0.04213250655181833	-0.00146421391389151	0.5102252513022842	0.022624179814514922	-0.019194150773368168	0.4622830810018609	-0.023011742144276925	-0.051989820119430985
29	0.9999999999999956	0.5427987999319137	0.04887249838134444	-0.11237645200637665	0.527178160443396	0.036645289301699746	-0.10077942738398245	0.5016297671631793	0.019575751159243704	-0.09580645358527694	0.4812336169989753	-0.007192627279357766	-0.0665260680986229	0.5560120176134566	0.10638872445668024	-0.0677392321459332	0.5386537282261985	0.10177479520674826	-0.06541513093797748	0.5164297214739921	0.09014490394625652	-0.06372723694040923	0.4931429067647959	0.05455103336916145	-0.065833592095784	0.5715912191702596	0.09058214294610012	-0.046342296690743454	0.554260323894199	0.08911694766607248	-0.041293210464345476	0.5263143977740542	0.08204193563449991	-0.03700614059781404	0.4942692065827319	0.051335829601675154	-0.04214313337691347	0.5712549630099029	0.07904386461061974	-0.029609692458341677	0.5546046664906019	0.07570906688899448	-0.023556036540204023	0.531568139700905	0.06762146090237298	-0.01864797767006586	0.5013336971121676	0.041635373825093636	-0.025380183382936378	0.5558772419340463	0.06419099723375066	0.02159396966398648	0.5431042420290388	0.05514869608438422	0.01465947160350331	0.5285317163253677	0.04393222120218154	0.004528123971881841	0.5065451732566961	0.0235327592826714	-0.015505281337348825	0.4622830810018609	-0.023011742144276925	-0.051989820119430985
30	1.0333333333333288	0.5375849069918444	0.05473210211610702	-0.1124633409035287	0.5240583018292881	0.040813727514800724	-0.10016253600165255	0.5003108467538759	0.02145341308504045	-0.09468014577273821	0.4814531452810807	-0.006701164649799196	-0.06566985711964467	0.5494432245022751	0.11478672968777404	-0.05923479608655831	0.5329970428318254	0.10722539860731206	-0.05864371169816521	0.5126124039318924	0.09252162756048976	-0.05916854207264603	0.49239714402994	0.05526040478528649	-0.06324047507715284	0.5619852384391746	0.10570007655574876	-0.0319780630091603	0.5451304248540545	0.09938646548775087	-0.029964713985045216	0.5191342443456222	0.08621605965447632	-0.03035014771457295	0.49212755123839624	0.051839892848923985	-0.039573249371225805	0.5621662984334117	0.09049540945355172	-0.015421709971900927	0.5457596465528987	0.0836419423165502	-0.012446518839603335	0.5241059213474564	0.07136256664004659	-0.01173021113862123	0.49830451457560265	0.04221981871738678	-0.02267134847025444	0.5467250838738339	0.0667720283272949	0.029344996629822616	0.535133680181672	0.05716132826880893	0.02120412414395524	0.5220946146924696	0.04532663818059979	0.009770187783963803	0.5029807258300454	0.02419532832078608	-0.01234339282080131	0.4622830810018609	-0.023011742144276925	-0.051989820119430985
31	1.0666666666666622	0.5321908591453843	0.05965884728318105	-0.11272073833832766	0.5209010545402109	0.04435349600039862	-0.09982552472677256	0.49920974374435345	0.022865392346875346	-0.09377834047846675	0.48157912305967526	-0.00631523521327515	-0.0650113074463867	0.5422404656159195	0.12153178626225136	-0.052163706935856285	0.5271836858508406	0.1115152512018428	-0.05314473114020407	0.5089933495564842	0.09433194831821123	-0.055564565950186925	0.4919008389384246	0.05572399695145991	-0.061124086256300864	0.5499009649804452	0.11677526646976721	-0.020088274402889086	0.5347015678237586	0.10694950979335205	-0.02074617394627694	0.511988280808866	0.08921236069067462	-0.025094700672480777	0.4903669909321899	0.05216592516927898	-0.037593875054327694	0.5509235564429356	0.0993897583067952	-0.0031380262971550527	0.5357704956517189	0.08962364653038946	-0.0030496553265862286	0.5165694539468595	0.07405468720938779	-0.006067515845107216	0.49559874300073536	0.042627004018871206	-0.02046372526601531	0.5374098484565539	0.06863760592622137	0.03619429138519343	0.5271577133463374	0.05856611672235357	0.0268959672943564	0.5157915174096173	0.046243669912252705	0.01425559888436459	0.49965623709528795	0.024675471816141825	-0.009730835012005765	0.4622830810018609	-0.023011742144276925	-0.051989820119430985
